<?xml version="1.0" encoding="UTF-8"?>
<svg version="1.1" xmlns="http://www.w3.org/2000/svg" width="512" height="512">
<path d="M0 0 C168.96 0 337.92 0 512 0 C512 168.96 512 337.92 512 512 C343.04 512 174.08 512 0 512 C0 343.04 0 174.08 0 0 Z " fill="#FEFEFE" transform="translate(0,0)"/>
<path d="M0 0 C102.63 0 205.26 0 311 0 C311 102.96 311 205.92 311 312 C208.37 312 105.74 312 0 312 C0 209.04 0 106.08 0 0 Z " fill="#EDECEC" transform="translate(101,100)"/>
<path d="M0 0 C3.8828125 1.7421875 3.8828125 1.7421875 4.9375 4.0625 C5.288125 4.701875 5.63875 5.34125 6 6 C7.15918945 6.20266479 7.15918945 6.20266479 8.34179688 6.40942383 C11.48726231 7.10825565 12.45035803 8.03110675 14.59375 10.38671875 C15.23183594 11.07830078 15.86992187 11.76988281 16.52734375 12.48242188 C17.17832031 13.21009766 17.82929688 13.93777344 18.5 14.6875 C19.15097656 15.39583984 19.80195313 16.10417969 20.47265625 16.83398438 C22.33559805 18.8719298 24.17028065 20.932241 26 23 C26.48146484 23.52392334 26.96292969 24.04784668 27.45898438 24.58764648 C30.2649845 27.74227408 31.97931046 30.83221417 33.62280273 34.65844727 C38.3150077 45.51202798 45.15791501 51.11279644 54.625 57.875 C61.85272679 63.14928711 65.24791777 69.28281604 69.02734375 77.29296875 C74.94160525 89.36185747 81.19947942 94.80692282 93 101 C93 101.33 93 101.66 93 102 C42.18 102 -8.64 102 -61 102 C-57.57092068 99.42819051 -55.39048913 98.22470898 -51.484375 96.80078125 C-49.86607788 96.20003784 -49.86607788 96.20003784 -48.21508789 95.5871582 C-46.49986938 94.95620239 -46.49986938 94.95620239 -44.75 94.3125 C-20.78188559 86.09855409 -20.78188559 86.09855409 -1.3125 70.9375 C0.1983581 67.55605568 0.62232667 65.65616921 0 62 C-4.82627904 53.00557088 -18.39943989 50.3228057 -27.375 47.375 C-29.67673907 46.61882379 -31.97632914 45.85606632 -34.2734375 45.0859375 C-35.27810059 44.7564209 -36.28276367 44.4269043 -37.31787109 44.08740234 C-39.9416529 43.02365538 -41.83541759 41.80542779 -44 40 C-44.01171875 37.78125 -44.01171875 37.78125 -43 35 C-40.46812178 33.11537472 -37.66120069 31.84028644 -34.8125 30.5 C-28.11551857 27.26854945 -22.23978015 24.35967022 -18 18 C-16.65035156 17.66355469 -16.65035156 17.66355469 -15.2734375 17.3203125 C-10.50344482 15.3963775 -8.51220921 12.00263984 -5.625 7.875 C-5.07972656 7.12089844 -4.53445313 6.36679688 -3.97265625 5.58984375 C-2.63484032 3.73567782 -1.31153431 1.87280227 0 0 Z " fill="#243448" transform="translate(294,199)"/>
<path d="M0 0 C0.66 0 1.32 0 2 0 C3.4453125 1.5390625 3.4453125 1.5390625 5.125 3.625 C15.47030836 15.74807357 28.8739392 19.82840661 44 23 C40.58806363 25.96615574 37.16820148 27.06147429 32.875 28.375 C20.84736352 31.83527032 20.84736352 31.83527032 12 40 C11.84525388 42.56189845 11.84525388 42.56189845 13 45 C16.58768657 48.2936139 20.20458645 50.15261793 24.6875 52 C25.29891846 52.25563721 25.91033691 52.51127441 26.5402832 52.7746582 C30.99357368 54.6269427 35.48557919 56.37704511 40.01171875 58.04296875 C42.26745101 59.12873379 43.57467643 59.92636872 45 62 C44.85668945 64.45288086 44.85668945 64.45288086 44 67 C42.07177734 68.37988281 42.07177734 68.37988281 39.4609375 69.453125 C38.4615918 69.86626953 37.46224609 70.27941406 36.43261719 70.70507812 C30.60235581 72.90448825 24.73504424 74.97517218 18.83938599 76.99053955 C3.04664559 82.40125139 3.04664559 82.40125139 -12.4375 88.625 C-13.14966675 88.93070923 -13.8618335 89.23641846 -14.59558105 89.5513916 C-18.62253722 91.32790059 -22.41455732 93.17808213 -26.09912109 95.59277344 C-40.06535853 104.51420919 -53.02432979 104.19288069 -69.1875 103.625 C-71.7023841 103.57471205 -74.21736638 103.52910742 -76.73242188 103.48828125 C-82.82379925 103.37938449 -88.91142424 103.21314583 -95 103 C-94.05349644 101.88212734 -93.10503537 100.76591194 -92.15576172 99.65039062 C-91.62779999 99.02861938 -91.09983826 98.40684814 -90.55587769 97.76623535 C-88.55697247 95.4970743 -86.39559702 93.49514755 -84.125 91.5 C-83.26390625 90.73945313 -82.4028125 89.97890625 -81.515625 89.1953125 C-80.27039063 88.10863281 -80.27039063 88.10863281 -79 87 C-78.29359375 86.37867188 -77.5871875 85.75734375 -76.859375 85.1171875 C-75.87710938 84.25480469 -75.87710938 84.25480469 -74.875 83.375 C-74.27413574 82.84511475 -73.67327148 82.31522949 -73.05419922 81.76928711 C-71.75835736 80.65317516 -70.43958715 79.5626658 -69.09130859 78.51049805 C-63.38512387 73.92504299 -60.16216267 68.85110206 -56.75 62.4375 C-55.74663467 60.60185599 -54.74147088 58.76719371 -53.734375 56.93359375 C-53.26966797 56.0813623 -52.80496094 55.22913086 -52.32617188 54.35107422 C-50.69134581 51.45280931 -48.90530117 48.72639524 -47 46 C-43.37 46.33 -39.74 46.66 -36 47 C-35.34 45.35 -34.68 43.7 -34 42 C-29.13134336 31.95512707 -24.01698204 24.27064847 -15.046875 17.5546875 C-9.43784981 12.85173561 -5.33827485 6.8521944 -1 1 C-0.67 0.67 -0.34 0.34 0 0 Z " fill="#233448" transform="translate(221,198)"/>
<path d="M0 0 C4.54102447 1.13525612 5.34645043 2.11176738 8.3125 5.5625 C9.09882813 6.46742188 9.88515625 7.37234375 10.6953125 8.3046875 C11.45585937 9.19414062 12.21640625 10.08359375 13 11 C14.22791243 12.39693681 15.45695465 13.79288194 16.6875 15.1875 C19.81732656 18.77022136 22.90359211 22.38752413 26 26 C26.33 17.75 26.66 9.5 27 1 C30.3 1 33.6 1 37 1 C37 17.17 37 33.34 37 50 C33 50 33 50 31.4296875 48.63671875 C30.91664063 47.99347656 30.40359375 47.35023438 29.875 46.6875 C26.96472185 43.15627888 23.97245856 39.74440805 20.875 36.375 C17.46140499 32.65603547 14.23933037 28.88719645 11 25 C10.67 32.92 10.34 40.84 10 49 C6.7 49 3.4 49 0 49 C0 32.83 0 16.66 0 0 Z " fill="#324256" transform="translate(251,303)"/>
<path d="M0 0 C3.3 0 6.6 0 10 0 C10 6.27 10 12.54 10 19 C14.62 19 19.24 19 24 19 C24 12.73 24 6.46 24 0 C27.3 0 30.6 0 34 0 C34 15.84 34 31.68 34 48 C30.7 48 27.4 48 24 48 C24 41.73 24 35.46 24 29 C19.38 29 14.76 29 10 29 C10 35.27 10 41.54 10 48 C6.7 48 3.4 48 0 48 C0 32.16 0 16.32 0 0 Z " fill="#314155" transform="translate(334,304)"/>
<path d="M0 0 C3.3 0 6.6 0 10 0 C10.33 5.28 10.66 10.56 11 16 C11.59425781 14.845 12.18851563 13.69 12.80078125 12.5 C19.31940248 0.57355398 19.31940248 0.57355398 24.11328125 -1.0625 C26.89849944 -1.0047004 29.31663092 -0.73461055 32 0 C30.07227051 5.88833734 26.25136067 10.73837558 22.72460938 15.76171875 C22.23412109 16.49003906 21.74363281 17.21835937 21.23828125 17.96875 C20.78493408 18.62294922 20.33158691 19.27714844 19.86450195 19.95117188 C18.68627195 22.74352043 19.06113871 24.14126319 20 27 C21.38230479 29.4465606 21.38230479 29.4465606 23.16015625 31.828125 C23.78857422 32.70984375 24.41699219 33.5915625 25.06445312 34.5 C25.72380859 35.4075 26.38316406 36.315 27.0625 37.25 C28.3677162 39.06639417 29.67120284 40.88403288 30.97265625 42.703125 C31.55281494 43.50395508 32.13297363 44.30478516 32.73071289 45.12988281 C34 47 34 47 34 48 C29.81769025 48.69008111 26.15750905 48.92615257 22 48 C18.51288982 44.79384182 16.30198325 41.11028816 14 37 C13.01 35.35 12.02 33.7 11 32 C10.67 37.28 10.34 42.56 10 48 C6.7 48 3.4 48 0 48 C0 32.16 0 16.32 0 0 Z " fill="#2E3F53" transform="translate(125,304)"/>
<path d="M0 0 C3 1 3 1 4.22338867 3.2746582 C4.6176001 4.27327881 5.01181152 5.27189941 5.41796875 6.30078125 C5.86422607 7.41469238 6.3104834 8.52860352 6.77026367 9.67626953 C7.23795166 10.87622559 7.70563965 12.07618164 8.1875 13.3125 C8.67001221 14.52534668 9.15252441 15.73819336 9.6496582 16.98779297 C10.63424701 19.46466191 11.61509792 21.94262161 12.58984375 24.42333984 C13.87813633 27.6909102 15.18361998 30.95069476 16.5 34.20703125 C22 47.82670232 22 47.82670232 22 49 C18.37 49 14.74 49 11 49 C10.34 47.35 9.68 45.7 9 44 C3.72 44 -1.56 44 -7 44 C-7.495 46.475 -7.495 46.475 -8 49 C-11.63 49 -15.26 49 -19 49 C-17.04848892 42.2000142 -14.80344992 35.66954467 -12.125 29.125 C-11.77348877 28.25657471 -11.42197754 27.38814941 -11.05981445 26.4934082 C-7.46228527 17.62467721 -3.79418854 8.78654189 0 0 Z " fill="#2D3D52" transform="translate(180,303)"/>
<path d="M0 0 C2.33642862 2.11062557 3.55545711 3.86399707 4.6484375 6.80859375 C4.92888916 7.54940186 5.20934082 8.29020996 5.49829102 9.0534668 C5.78760498 9.84019775 6.07691895 10.62692871 6.375 11.4375 C6.99497344 13.07854868 7.61606872 14.71917397 8.23828125 16.359375 C8.53943848 17.15794922 8.8405957 17.95652344 9.15087891 18.77929688 C10.23189656 21.60647819 11.38541871 24.39907443 12.5625 27.1875 C14.52180998 31.83759568 16.43173284 36.50521375 18.3125 41.1875 C18.5794165 41.84838623 18.84633301 42.50927246 19.12133789 43.19018555 C21 47.88158625 21 47.88158625 21 49 C17.37 49 13.74 49 10 49 C9.505 46.525 9.505 46.525 9 44 C3.39 44 -2.22 44 -8 44 C-8.495 46.475 -8.495 46.475 -9 49 C-12.63 49 -16.26 49 -20 49 C-16.56148447 39.01369427 -12.73893194 29.22808079 -8.69628906 19.47241211 C-7.73315988 17.14683781 -6.77644813 14.81869158 -5.8203125 12.49023438 C-5.20870384 11.0076596 -4.59673871 9.52523182 -3.984375 8.04296875 C-3.69898865 7.3483403 -3.41360229 6.65371185 -3.11956787 5.93803406 C-1.11536941 1.11536941 -1.11536941 1.11536941 0 0 Z " fill="#2D3D52" transform="translate(224,303)"/>
<path d="M0 0 C10.89 0 21.78 0 33 0 C33 2.97 33 5.94 33 9 C29.37 9 25.74 9 22 9 C22 21.54 22 34.08 22 47 C18.7 47 15.4 47 12 47 C12 34.46 12 21.92 12 9 C8.04 9 4.08 9 0 9 C0 6.03 0 3.06 0 0 Z " fill="#2E3E53" transform="translate(294,305)"/>
<path d="M0 0 C3.3 0 6.6 0 10 0 C10 15.84 10 31.68 10 48 C6.7 48 3.4 48 0 48 C0 32.16 0 16.32 0 0 Z " fill="#314155" transform="translate(378,304)"/>
<path d="M0 0 C5.87176559 4.01694618 9.58795814 8.92403066 11.83984375 15.6796875 C11.98833815 18.29832911 12.07084645 20.8729352 12.08984375 23.4921875 C12.11046875 24.19150391 12.13109375 24.89082031 12.15234375 25.61132812 C12.18820103 30.40275727 11.28656511 33.57820986 8.83984375 37.6796875 C8.50984375 37.0196875 8.17984375 36.3596875 7.83984375 35.6796875 C8.16984375 34.6896875 8.49984375 33.6996875 8.83984375 32.6796875 C9.83093273 20.55124919 9.83093273 20.55124919 5.46484375 9.51171875 C0.55374489 3.97492701 -5.18522972 0.06249117 -12.6484375 -0.65625 C-21.23678478 -0.74397571 -27.53650624 -0.55943989 -34.0859375 5.4453125 C-39.77746077 11.43142807 -42.26784902 16.93050758 -42.47265625 25.1796875 C-42.34627994 29.94873045 -41.53618819 34.12158171 -40.16015625 38.6796875 C-43.80950395 35.52797812 -44.98037772 32.22956763 -45.53125 27.48046875 C-45.71627111 17.76141871 -44.08454334 11.326988 -37.78515625 3.8671875 C-25.56446274 -6.31672376 -14.00535803 -8.56023692 0 0 Z " fill="#C8AE82" transform="translate(274.16015625,163.3203125)"/>
<path d="M0 0 C2.81282746 1.27855794 4.50828818 2.35183442 6.375 4.8125 C7.7013834 9.4548419 5.87943539 13.73994645 4 18 C-2.14673271 16.53012914 -7.42234327 13.94033413 -13 11 C-12.28377977 6.59930661 -11.03976409 4.31610628 -8 1 C-5.17998673 -0.41000664 -3.12992745 -0.24548451 0 0 Z " fill="#354558" transform="translate(215,160)"/>
<path d="M0 0 C2.93724604 3.00845201 4.81696354 5.98313075 5.5625 10.125 C4.86367731 13.69676043 3.51559623 15.41041565 1 18 C-2.14911479 19.57455739 -4.52008816 19.34799118 -8 19 C-10.33470194 17.54526197 -12.01170253 15.93980241 -14 14 C-13.58109745 9.62706609 -10.67920548 7.47464215 -7.5625 4.75 C-7.05912109 4.29109375 -6.55574219 3.8321875 -6.03710938 3.359375 C-2.27280971 0 -2.27280971 0 0 0 Z " fill="#354558" transform="translate(297,145)"/>
<path d="M0 0 C3.28670403 3.28670403 5 7.35868331 5 12 C5.66 12 6.32 12 7 12 C7.2165625 10.576875 7.2165625 10.576875 7.4375 9.125 C8 6 8 6 9 4 C10.32 4.33 11.64 4.66 13 5 C11.02 10.94 9.04 16.88 7 23 C4.1673866 21.5836933 3.98292167 19.85502707 2.875 16.9375 C2.52179688 16.01839844 2.16859375 15.09929687 1.8046875 14.15234375 C1.53914063 13.44207031 1.27359375 12.73179687 1 12 C-0.54571278 14.31856917 -1.79618552 16.50638429 -3 19 C-3.99 18.67 -4.98 18.34 -6 18 C-5.41347648 13.51006131 -4.2356462 9.77456816 -2.4375 5.625 C-1.98246094 4.56539062 -1.52742188 3.50578125 -1.05859375 2.4140625 C-0.70925781 1.61742187 -0.35992187 0.82078125 0 0 Z " fill="#354559" transform="translate(270,131)"/>
<path d="M0 0 C2.27159689 1.29033905 4.54229625 2.58221402 6.8125 3.875 C7.45509766 4.23980469 8.09769531 4.60460937 8.75976562 4.98046875 C11.56768798 6.58083901 14.30964298 8.20642866 17 10 C16.67 10.99 16.34 11.98 16 13 C14.15234375 13.73046875 14.15234375 13.73046875 11.9375 14.1875 C11.20402344 14.34605469 10.47054687 14.50460938 9.71484375 14.66796875 C9.14894531 14.77753906 8.58304688 14.88710937 8 15 C8 16.32 8 17.64 8 19 C7.01 19.33 6.02 19.66 5 20 C0 5.3 0 5.3 0 0 Z " fill="#3B4A5D" transform="translate(222,141)"/>
<path d="M0 0 C0.66 0 1.32 0 2 0 C3.63863397 2.43133054 5.14921334 4.84771535 6.625 7.375 C7.25535156 8.42300781 7.25535156 8.42300781 7.8984375 9.4921875 C11 14.72859172 11 14.72859172 11 17 C10.31292969 16.96519531 9.62585938 16.93039063 8.91796875 16.89453125 C7.56638672 16.85392578 7.56638672 16.85392578 6.1875 16.8125 C5.29417969 16.77769531 4.40085938 16.74289063 3.48046875 16.70703125 C0.53986335 17.05434685 -0.10494854 17.83178796 -2 20 C-2.66 20 -3.32 20 -4 20 C-2.07289294 6.3667426 -2.07289294 6.3667426 0 0 Z " fill="#3D4C5F" transform="translate(247,131)"/>
<path d="M0 0 C0.66 0.33 1.32 0.66 2 1 C-0.37473231 4.26525693 -2.85258359 6.70949678 -6 9.1875 C-11.28269106 13.75072008 -13.55400219 18.894533 -14.3046875 25.8046875 C-14.44708954 31.51659158 -13.64702958 36.54421451 -12 42 C-15.6493477 38.84829062 -16.82022147 35.54988013 -17.37109375 30.80078125 C-17.55611486 21.08173121 -15.92438709 14.6473005 -9.625 7.1875 C-6.52206573 4.60172144 -3.33048747 2.28562865 0 0 Z " fill="#C4A879" transform="translate(246,160)"/>
<path d="M0 0 C0 0.99 0 1.98 0 3 C-7.15775723 5.28612778 -13.48193151 6.44032071 -21 6 C-19.359375 2.15625 -19.359375 2.15625 -16.125 0.75 C-10.85686092 -0.52509099 -5.37892396 -0.15898297 0 0 Z " fill="#334357" transform="translate(238,287)"/>
<path d="M0 0 C0 0.99 0 1.98 0 3 C-2.05590454 3.86992154 -4.12005336 4.72037689 -6.1875 5.5625 C-7.91033203 6.27599609 -7.91033203 6.27599609 -9.66796875 7.00390625 C-13.05139127 8.01536316 -14.68416941 8.04283184 -18 7 C-17.67 6.01 -17.34 5.02 -17 4 C-14.453125 2.83203125 -14.453125 2.83203125 -11.25 1.8125 C-10.20328125 1.46832031 -9.1565625 1.12414062 -8.078125 0.76953125 C-5.22909507 0.05727377 -2.91669884 -0.15663753 0 0 Z " fill="#38475B" transform="translate(312,169)"/>
<path d="M0 0 C0.66 0.66 1.32 1.32 2 2 C1.625 5.125 1.625 5.125 1 8 C-2.48670834 6.8905928 -5.77484237 5.73662334 -9 4 C-8.625 2.0625 -8.625 2.0625 -8 0 C-5.09288879 -1.4535556 -3.10402897 -0.71133997 0 0 Z " fill="#DEDFE0" transform="translate(216,165)"/>
<path d="M0 0 C1.33157895 5.44736842 1.33157895 5.44736842 -0.125 7.875 C-2.61629254 9.36977553 -4.14449042 9.43930917 -7 9 C-7.66 8.01 -8.32 7.02 -9 6 C-8.07213211 4.99105628 -7.13231567 3.99309093 -6.1875 3 C-5.66542969 2.443125 -5.14335937 1.88625 -4.60546875 1.3125 C-3 0 -3 0 0 0 Z " fill="#E9E8E9" transform="translate(297,151)"/>
<path d="M0 0 C3.45854519 3.45854519 4 7.21904213 4 12 C1.69 12 -0.62 12 -3 12 C-2.49202991 7.6822542 -1.80317221 3.96697886 0 0 Z " fill="#D9DADC" transform="translate(224,326)"/>
<path d="M0 0 C1.90318884 2.85478326 2.4619099 4.41941308 3.125 7.6875 C3.29257813 8.49574219 3.46015625 9.30398438 3.6328125 10.13671875 C3.75398437 10.75160156 3.87515625 11.36648438 4 12 C1.36 12 -1.28 12 -4 12 C-3.52309796 10.37433394 -3.04340334 8.74948689 -2.5625 7.125 C-2.29566406 6.22007812 -2.02882812 5.31515625 -1.75390625 4.3828125 C-1 2 -1 2 0 0 Z " fill="#D9DADC" transform="translate(181,326)"/>
<path d="M0 0 C0 0.66 0 1.32 0 2 C-5.10334017 3.905247 -9.46342706 5.42589023 -15 5 C-14.67 4.01 -14.34 3.02 -14 2 C-9.24983365 -0.2012966 -5.11918146 -0.1765235 0 0 Z " fill="#344458" transform="translate(259,279)"/>
<path d="M0 0 C-1.69179328 2.04219706 -2.63727666 2.91793306 -5.26171875 3.51171875 C-6.06222656 3.56972656 -6.86273438 3.62773437 -7.6875 3.6875 C-8.49574219 3.75324219 -9.30398438 3.81898438 -10.13671875 3.88671875 C-10.75160156 3.92410156 -11.36648438 3.96148437 -12 4 C-8.7771058 -0.8343413 -5.44718932 -0.10277716 0 0 Z " fill="#37475A" transform="translate(274,272)"/>
<path d="M0 0 C-1.75 2 -1.75 2 -4 4 C-5.32 4 -6.64 4 -8 4 C-7.67 3.01 -7.34 2.02 -7 1 C-4.53721199 -0.231394 -2.7204945 -0.07159196 0 0 Z " fill="#3E4D60" transform="translate(283,265)"/>
</svg>
